<svg width="64" height="64" viewBox="0 0 64 64" fill="none" xmlns="http://www.w3.org/2000/svg">
<path d="M48 8.05331C49.8134 7.09331 51.5734 6.26664 53.2267 5.59997C54.8 5.01331 56.32 5.43997 57.28 6.42664C58.2934 7.43997 58.7734 8.95997 58.1334 10.5333C54.0267 20.7733 43.7334 34.6933 35.12 41.6L29.8667 45.8133C29.2 46.2933 28.5334 46.72 27.7867 47.0133C27.7867 46.5333 27.76 46 27.68 45.4933C27.3867 43.2533 26.3734 41.1733 24.5867 39.3866C22.7734 37.5733 20.56 36.5066 18.2934 36.2133C17.76 36.1866 17.2267 36.1333 16.6934 36.1866C16.9867 35.36 17.44 34.5866 18 33.9466L22.16 28.6933C26.0267 23.8666 32.1067 18.5066 38.48 14" stroke="#E5BA73" stroke-width="1.5" stroke-linecap="round" stroke-linejoin="round"/>
<path d="M27.8133 46.9866C27.8133 49.92 26.6933 52.72 24.5866 54.8533C22.96 56.48 20.7466 57.6 18.1066 57.9466L11.5466 58.6666C7.97331 59.0666 4.90664 56.0266 5.33331 52.4L6.05331 45.84C6.69331 40 11.5733 36.2666 16.7466 36.16C17.28 36.1333 17.84 36.16 18.3466 36.1866C20.6133 36.48 22.8266 37.52 24.64 39.36C26.4266 41.1466 27.44 43.2266 27.7333 45.4666C27.76 45.9733 27.8133 46.48 27.8133 46.9866Z" stroke="#E5BA73" stroke-width="1.5" stroke-linecap="round" stroke-linejoin="round"/>
<path d="M37.9733 38.5865C37.9733 31.6265 32.32 25.9731 25.36 25.9731" stroke="#E5BA73" stroke-width="1.5" stroke-linecap="round" stroke-linejoin="round"/>
<path d="M53.6533 33.9468L55.6267 35.8934C59.6 39.8668 59.6 43.7868 55.6267 47.7601L47.7333 55.6534C43.8133 59.5734 39.84 59.5734 35.92 55.6534" stroke="#E5BA73" stroke-width="1.5" stroke-linecap="round"/>
<path d="M8.29333 28.0267C4.37333 24.0533 4.37333 20.1333 8.29333 16.16L16.1867 8.26666C20.1067 4.34666 24.08 4.34666 28 8.26666L29.9733 10.24" stroke="#E5BA73" stroke-width="1.5" stroke-linecap="round"/>
<path d="M30 10.2666L20.1334 20.1333" stroke="#E5BA73" stroke-width="1.5" stroke-linecap="round"/>
<path d="M53.6533 33.9468L45.76 41.8134" stroke="#E5BA73" stroke-width="1.5" stroke-linecap="round"/>
</svg>
