<svg width="24" height="24" viewBox="0 0 24 24" fill="none" xmlns="http://www.w3.org/2000/svg">
<path d="M21.543 7.104C21.5576 7.31568 21.5576 7.52718 21.5576 7.74075C21.5576 14.247 16.6044 21.7507 7.54763 21.7507V21.747C4.87202 21.7507 2.25186 20.9844 0 19.5394C0.389063 19.5862 0.78 19.6097 1.17188 19.6106C3.38946 19.6124 5.54326 18.8686 7.28719 17.4988C6.25968 17.4794 5.26393 17.1394 4.43914 16.5263C3.61436 15.9132 3.00178 15.0577 2.68706 14.0794C3.42525 14.2219 4.18575 14.1924 4.91025 13.9944C2.613 13.5304 0.960375 11.5121 0.960375 9.16818V9.10575C1.64518 9.48725 2.41163 9.69862 3.19519 9.72206C1.03125 8.27606 0.364688 5.39775 1.67119 3.14756C2.90736 4.66868 4.44967 5.91276 6.19797 6.79899C7.94626 7.68522 9.86142 8.19377 11.8191 8.29162C11.6239 7.45139 11.6528 6.57465 11.9028 5.74909C12.1528 4.92352 12.6152 4.17806 13.2437 3.58725C15.2269 1.72293 18.3459 1.81856 20.2101 3.80081C21.3128 3.58307 22.3703 3.17877 23.337 2.60531C22.9694 3.74544 22.2002 4.71325 21.1725 5.32875C22.1486 5.21366 23.1017 4.9523 24 4.55343C23.3392 5.54299 22.5072 6.40671 21.543 7.104Z" fill="#1D9BF0"/>
</svg>
