<svg width="64" height="64" viewBox="0 0 64 64" fill="none" xmlns="http://www.w3.org/2000/svg">
<path d="M48.1067 36.1336C46.9867 37.227 46.3467 38.8003 46.5067 40.4803C46.7467 43.3603 49.3867 45.467 52.2667 45.467H57.3333V48.6403C57.3333 54.1603 52.8267 58.667 47.3067 58.667H16.6933C11.1733 58.667 6.66666 54.1603 6.66666 48.6403V30.6937C6.66666 25.1737 11.1733 20.667 16.6933 20.667H47.3067C52.8267 20.667 57.3333 25.1737 57.3333 30.6937V34.5337H51.9467C50.4533 34.5337 49.0933 35.1203 48.1067 36.1336Z" stroke="#E5BA73" stroke-width="1.5" stroke-linecap="round" stroke-linejoin="round"/>
<path d="M6.66666 33.0935V20.9069C6.66666 17.7336 8.61332 14.9068 11.5733 13.7868L32.7467 5.78683C36.0533 4.53349 39.6 6.98691 39.6 10.5336V20.6669" stroke="#E5BA73" stroke-width="1.5" stroke-linecap="round" stroke-linejoin="round"/>
<path d="M60.1568 37.2536V42.7471C60.1568 44.2137 58.9835 45.4136 57.4901 45.467H52.2635C49.3835 45.467 46.7435 43.3603 46.5035 40.4803C46.3435 38.8003 46.9835 37.227 48.1035 36.1336C49.0902 35.1203 50.4502 34.5337 51.9435 34.5337H57.4901C58.9835 34.587 60.1568 35.7869 60.1568 37.2536Z" stroke="#E5BA73" stroke-width="1.5" stroke-linecap="round" stroke-linejoin="round"/>
<path d="M18.6667 32H37.3333" stroke="#E5BA73" stroke-width="1.5" stroke-linecap="round" stroke-linejoin="round"/>
</svg>
