<svg width="64" height="64" viewBox="0 0 64 64" fill="none" xmlns="http://www.w3.org/2000/svg">
<path d="M53.2533 26.6665H10.5867V47.9998C10.5867 55.9998 13.2533 58.6665 21.2533 58.6665H42.5867C50.5867 58.6665 53.2533 55.9998 53.2533 47.9998V26.6665Z" stroke="#E5BA73" stroke-width="1.5" stroke-miterlimit="10" stroke-linecap="round" stroke-linejoin="round"/>
<path d="M57.3333 18.6668V21.3335C57.3333 24.2668 55.92 26.6668 52 26.6668H12C7.92 26.6668 6.66666 24.2668 6.66666 21.3335V18.6668C6.66666 15.7335 7.92 13.3335 12 13.3335H52C55.92 13.3335 57.3333 15.7335 57.3333 18.6668Z" stroke="#E5BA73" stroke-width="1.5" stroke-miterlimit="10" stroke-linecap="round" stroke-linejoin="round"/>
<path d="M31.04 13.3332H16.32C15.4133 12.3465 15.44 10.8265 16.4 9.86651L20.1867 6.07984C21.1733 5.09318 22.8 5.09318 23.7867 6.07984L31.04 13.3332Z" stroke="#E5BA73" stroke-width="1.5" stroke-miterlimit="10" stroke-linecap="round" stroke-linejoin="round"/>
<path d="M47.6533 13.3332H32.9333L40.1867 6.07984C41.1733 5.09318 42.8 5.09318 43.7867 6.07984L47.5733 9.86651C48.5333 10.8265 48.56 12.3465 47.6533 13.3332Z" stroke="#E5BA73" stroke-width="1.5" stroke-miterlimit="10" stroke-linecap="round" stroke-linejoin="round"/>
<path d="M23.84 26.6665V40.3732C23.84 42.5065 26.1867 43.7598 27.9733 42.6132L30.48 40.9598C31.3867 40.3732 32.5333 40.3732 33.4133 40.9598L35.7867 42.5598C37.5467 43.7332 39.92 42.4798 39.92 40.3465V26.6665H23.84Z" stroke="#E5BA73" stroke-width="1.5" stroke-miterlimit="10" stroke-linecap="round" stroke-linejoin="round"/>
</svg>
