<svg width="64" height="64" viewBox="0 0 64 64" fill="none" xmlns="http://www.w3.org/2000/svg">
<path d="M24 5.3335H40C53.3333 5.3335 58.6666 10.6668 58.6666 24.0002V40.0002C58.6666 53.3335 53.3333 58.6668 40 58.6668H24C10.6666 58.6668 5.33331 53.3335 5.33331 40.0002V24.0002C5.33331 10.6668 10.6666 5.3335 24 5.3335Z" stroke="#E5BA73" stroke-width="1.5" stroke-linecap="round" stroke-linejoin="round"/>
<path d="M22.8535 40.7202L40.2935 23.2803" stroke="#E5BA73" stroke-width="1.5" stroke-linecap="round" stroke-linejoin="round"/>
<path d="M23.9467 27.6532C25.7582 27.6532 27.2267 26.1848 27.2267 24.3733C27.2267 22.5618 25.7582 21.0933 23.9467 21.0933C22.1352 21.0933 20.6667 22.5618 20.6667 24.3733C20.6667 26.1848 22.1352 27.6532 23.9467 27.6532Z" stroke="#E5BA73" stroke-width="1.5" stroke-linecap="round" stroke-linejoin="round"/>
<path d="M41.3867 42.9067C43.1982 42.9067 44.6667 41.4381 44.6667 39.6266C44.6667 37.8151 43.1982 36.3467 41.3867 36.3467C39.5752 36.3467 38.1068 37.8151 38.1068 39.6266C38.1068 41.4381 39.5752 42.9067 41.3867 42.9067Z" stroke="#E5BA73" stroke-width="1.5" stroke-linecap="round" stroke-linejoin="round"/>
</svg>
