<svg width="64" height="64" viewBox="0 0 64 64" fill="none" xmlns="http://www.w3.org/2000/svg">
<path d="M8.02667 29.9199V41.8933C8.02667 53.8666 12.8267 58.6666 24.8 58.6666H39.1733C51.1467 58.6666 55.9467 53.8666 55.9467 41.8933V29.9199" stroke="#E5BA73" stroke-width="1.5" stroke-linecap="round" stroke-linejoin="round"/>
<path d="M32 32.0002C36.88 32.0002 40.48 28.0268 40 23.1468L38.24 5.3335H25.7867L24 23.1468C23.52 28.0268 27.12 32.0002 32 32.0002Z" stroke="#E5BA73" stroke-width="1.5" stroke-linecap="round" stroke-linejoin="round"/>
<path d="M48.8267 32.0002C54.2133 32.0002 58.16 27.6268 57.6267 22.2668L56.88 14.9335C55.92 8.00016 53.2533 5.3335 46.2667 5.3335H38.1333L40 24.0268C40.4533 28.4268 44.4267 32.0002 48.8267 32.0002Z" stroke="#E5BA73" stroke-width="1.5" stroke-linecap="round" stroke-linejoin="round"/>
<path d="M15.04 32.0002C19.44 32.0002 23.4133 28.4268 23.84 24.0268L24.4267 18.1335L25.7067 5.3335H17.5733C10.5867 5.3335 7.91999 8.00016 6.95999 14.9335L6.23999 22.2668C5.70666 27.6268 9.65333 32.0002 15.04 32.0002Z" stroke="#E5BA73" stroke-width="1.5" stroke-linecap="round" stroke-linejoin="round"/>
<path d="M32 45.3335C27.5467 45.3335 25.3333 47.5468 25.3333 52.0002V58.6668H38.6667V52.0002C38.6667 47.5468 36.4533 45.3335 32 45.3335Z" stroke="#E5BA73" stroke-width="1.5" stroke-linecap="round" stroke-linejoin="round"/>
</svg>
